<svg
        width="30"
        height="30"
        viewBox="0 0 30 30"
        fill="none"
        xmlns="http://www.w3.org/2000/svg"
      >
        <path
          fillRule="evenodd"
          clipRule="evenodd"
          d="M19.9417 18.7584H21.2583L29.575 27.0917L27.0917 29.575L18.7583 21.2584V19.9417L18.3083 19.475C16.4083 21.1084 13.9417 22.0917 11.2583 22.0917C5.275 22.0917 0.424997 17.2417 0.424997 11.2584C0.424997 5.27502 5.275 0.425018 11.2583 0.425018C17.2417 0.425018 22.0917 5.27502 22.0917 11.2584C22.0917 13.9417 21.1083 16.4084 19.475 18.3083L19.9417 18.7584ZM3.75833 11.2584C3.75833 15.4084 7.10833 18.7584 11.2583 18.7584C15.4083 18.7584 18.7583 15.4084 18.7583 11.2584C18.7583 7.10835 15.4083 3.75835 11.2583 3.75835C7.10833 3.75835 3.75833 7.10835 3.75833 11.2584Z"
          fill="#8191a0"
        />
      </svg>